<svg width="490" height="64" viewBox="0 0 490 64" fill="none" xmlns="http://www.w3.org/2000/svg">
<g filter="url(#filter0_f_6_4)">
<path d="M15.2 16.945H22.4337L29.3989 30.0999H29.6972L36.6624 16.945H43.896L32.7547 36.6922V47.4905H26.3413V36.6922L15.2 16.945ZM52.8561 47.9379C50.5393 47.9379 48.5358 47.4457 46.8454 46.4614C45.165 45.467 43.8674 44.0849 42.9527 42.3151C42.0379 40.5352 41.5805 38.472 41.5805 36.1254C41.5805 33.7589 42.0379 31.6908 42.9527 29.9209C43.8674 28.141 45.165 26.7589 46.8454 25.7746C48.5358 24.7803 50.5393 24.2831 52.8561 24.2831C55.1728 24.2831 57.1714 24.7803 58.8518 25.7746C60.5422 26.7589 61.8447 28.141 62.7595 29.9209C63.6743 31.6908 64.1316 33.7589 64.1316 36.1254C64.1316 38.472 63.6743 40.5352 62.7595 42.3151C61.8447 44.0849 60.5422 45.467 58.8518 46.4614C57.1714 47.4457 55.1728 47.9379 52.8561 47.9379ZM52.8859 43.016C53.9399 43.016 54.8199 42.7178 55.5258 42.1212C56.2318 41.5146 56.7637 40.6893 57.1217 39.6453C57.4896 38.6013 57.6735 37.4131 57.6735 36.0807C57.6735 34.7483 57.4896 33.5601 57.1217 32.516C56.7637 31.472 56.2318 30.6467 55.5258 30.0402C54.8199 29.4337 53.9399 29.1304 52.8859 29.1304C51.822 29.1304 50.9271 29.4337 50.2012 30.0402C49.4853 30.6467 48.9434 31.472 48.5755 32.516C48.2176 33.5601 48.0386 34.7483 48.0386 36.0807C48.0386 37.4131 48.2176 38.6013 48.5755 39.6453C48.9434 40.6893 49.4853 41.5146 50.2012 42.1212C50.9271 42.7178 51.822 43.016 52.8859 43.016ZM82.9541 37.7362V24.5814H89.3078V47.4905H83.2076V43.3293H82.969C82.452 44.6716 81.5919 45.7504 80.3887 46.5658C79.1956 47.3811 77.7389 47.7888 76.0187 47.7888C74.4875 47.7888 73.1402 47.4408 71.9768 46.7447C70.8135 46.0487 69.9037 45.0594 69.2474 43.7767C68.6011 42.494 68.273 40.9578 68.263 39.168V24.5814H74.6167V38.0345C74.6267 39.3868 74.9896 40.4557 75.7055 41.2412C76.4214 42.0267 77.3809 42.4195 78.5841 42.4195C79.3497 42.4195 80.0656 42.2454 80.7318 41.8974C81.398 41.5395 81.9349 41.0125 82.3426 40.3165C82.7602 39.6204 82.964 38.7604 82.9541 37.7362ZM123.172 31.1141L117.355 31.472C117.256 30.9749 117.042 30.5274 116.714 30.1297C116.386 29.722 115.953 29.3989 115.416 29.1602C114.889 28.9116 114.258 28.7874 113.522 28.7874C112.538 28.7874 111.707 28.9962 111.031 29.4138C110.355 29.8214 110.017 30.3683 110.017 31.0544C110.017 31.6013 110.236 32.0636 110.673 32.4415C111.111 32.8193 111.861 33.1226 112.925 33.3513L117.072 34.1865C119.299 34.6439 120.959 35.3797 122.053 36.3939C123.147 37.4081 123.694 38.7405 123.694 40.391C123.694 41.8925 123.251 43.2099 122.366 44.3435C121.491 45.477 120.288 46.3619 118.757 46.9983C117.236 47.6247 115.481 47.9379 113.492 47.9379C110.459 47.9379 108.043 47.3065 106.244 46.0437C104.454 44.771 103.405 43.0409 103.096 40.8534L109.346 40.5253C109.535 41.45 109.992 42.156 110.718 42.6432C111.444 43.1205 112.373 43.3591 113.507 43.3591C114.621 43.3591 115.516 43.1453 116.192 42.7178C116.878 42.2803 117.226 41.7185 117.236 41.0324C117.226 40.4557 116.982 39.9834 116.505 39.6155C116.028 39.2376 115.292 38.9493 114.297 38.7504L110.33 37.9599C108.093 37.5125 106.427 36.7369 105.334 35.6332C104.25 34.5295 103.708 33.1226 103.708 31.4124C103.708 29.9408 104.106 28.673 104.901 27.6091C105.707 26.5452 106.835 25.7249 108.287 25.1481C109.748 24.5714 111.459 24.2831 113.418 24.2831C116.311 24.2831 118.588 24.8946 120.248 26.1176C121.919 27.3406 122.893 29.0061 123.172 31.1141ZM134.048 34.2462V47.4905H127.695V16.945H133.869V28.6233H134.138C134.655 27.271 135.49 26.2121 136.644 25.4464C137.797 24.6709 139.244 24.2831 140.984 24.2831C142.575 24.2831 143.962 24.6311 145.145 25.3271C146.338 26.0132 147.263 27.0026 147.919 28.2952C148.585 29.5778 148.913 31.1141 148.903 32.9038V47.4905H142.55V34.0374C142.56 32.6254 142.202 31.5267 141.476 30.7412C140.76 29.9557 139.756 29.5629 138.463 29.5629C137.598 29.5629 136.832 29.7469 136.166 30.1148C135.51 30.4827 134.993 31.0196 134.615 31.7256C134.247 32.4216 134.058 33.2618 134.048 34.2462ZM164.255 47.9379C161.938 47.9379 159.934 47.4457 158.244 46.4614C156.563 45.467 155.266 44.0849 154.351 42.3151C153.436 40.5352 152.979 38.472 152.979 36.1254C152.979 33.7589 153.436 31.6908 154.351 29.9209C155.266 28.141 156.563 26.7589 158.244 25.7746C159.934 24.7803 161.938 24.2831 164.255 24.2831C166.571 24.2831 168.57 24.7803 170.25 25.7746C171.941 26.7589 173.243 28.141 174.158 29.9209C175.073 31.6908 175.53 33.7589 175.53 36.1254C175.53 38.472 175.073 40.5352 174.158 42.3151C173.243 44.0849 171.941 45.467 170.25 46.4614C168.57 47.4457 166.571 47.9379 164.255 47.9379ZM164.284 43.016C165.338 43.016 166.218 42.7178 166.924 42.1212C167.63 41.5146 168.162 40.6893 168.52 39.6453C168.888 38.6013 169.072 37.4131 169.072 36.0807C169.072 34.7483 168.888 33.5601 168.52 32.516C168.162 31.472 167.63 30.6467 166.924 30.0402C166.218 29.4337 165.338 29.1304 164.284 29.1304C163.22 29.1304 162.326 29.4337 161.6 30.0402C160.884 30.6467 160.342 31.472 159.974 32.516C159.616 33.5601 159.437 34.7483 159.437 36.0807C159.437 37.4131 159.616 38.6013 159.974 39.6453C160.342 40.6893 160.884 41.5146 161.6 42.1212C162.326 42.7178 163.22 43.016 164.284 43.016ZM194.353 37.7362V24.5814H200.706V47.4905H194.606V43.3293H194.367C193.85 44.6716 192.99 45.7504 191.787 46.5658C190.594 47.3811 189.137 47.7888 187.417 47.7888C185.886 47.7888 184.539 47.4408 183.375 46.7447C182.212 46.0487 181.302 45.0594 180.646 43.7767C180 42.494 179.671 40.9578 179.661 39.168V24.5814H186.015V38.0345C186.025 39.3868 186.388 40.4557 187.104 41.2412C187.82 42.0267 188.779 42.4195 189.982 42.4195C190.748 42.4195 191.464 42.2454 192.13 41.8974C192.796 41.5395 193.333 41.0125 193.741 40.3165C194.159 39.6204 194.362 38.7604 194.353 37.7362ZM212.142 16.945V47.4905H205.788V16.945H212.142ZM225.674 47.8633C223.933 47.8633 222.357 47.4159 220.946 46.521C219.544 45.6162 218.43 44.2888 217.605 42.5388C216.789 40.7788 216.382 38.6212 216.382 36.0658C216.382 33.4408 216.804 31.2582 217.649 29.5182C218.495 27.7682 219.618 26.4606 221.02 25.5956C222.432 24.7206 223.978 24.2831 225.659 24.2831C226.941 24.2831 228.01 24.5018 228.865 24.9393C229.73 25.3669 230.426 25.9038 230.953 26.5501C231.49 27.1865 231.898 27.8129 232.176 28.4294H232.37V16.945H238.709V47.4905H232.445V43.8214H232.176C231.878 44.4578 231.456 45.0892 230.909 45.7156C230.372 46.3321 229.671 46.8442 228.806 47.2518C227.951 47.6595 226.907 47.8633 225.674 47.8633ZM227.687 42.8072C228.711 42.8072 229.576 42.5288 230.282 41.972C230.998 41.4053 231.545 40.6148 231.923 39.6006C232.311 38.5864 232.505 37.3981 232.505 36.0359C232.505 34.6737 232.316 33.4905 231.938 32.4862C231.56 31.482 231.013 30.7064 230.297 30.1595C229.581 29.6126 228.711 29.3392 227.687 29.3392C226.643 29.3392 225.763 29.6226 225.047 30.1893C224.331 30.7561 223.789 31.5416 223.421 32.5459C223.054 33.5501 222.87 34.7135 222.87 36.0359C222.87 37.3683 223.054 38.5466 223.421 39.5707C223.799 40.5849 224.341 41.3804 225.047 41.9571C225.763 42.5239 226.643 42.8072 227.687 42.8072ZM253.773 47.4905V16.945H260.127V28.4294H260.321C260.599 27.8129 261.002 27.1865 261.529 26.5501C262.066 25.9038 262.762 25.3669 263.617 24.9393C264.482 24.5018 265.556 24.2831 266.838 24.2831C268.509 24.2831 270.05 24.7206 271.462 25.5956C272.874 26.4606 274.002 27.7682 274.848 29.5182C275.693 31.2582 276.115 33.4408 276.115 36.0658C276.115 38.6212 275.703 40.7788 274.877 42.5388C274.062 44.2888 272.948 45.6162 271.536 46.521C270.134 47.4159 268.563 47.8633 266.823 47.8633C265.59 47.8633 264.541 47.6595 263.676 47.2518C262.821 46.8442 262.12 46.3321 261.573 45.7156C261.027 45.0892 260.609 44.4578 260.321 43.8214H260.037V47.4905H253.773ZM259.992 36.0359C259.992 37.3981 260.181 38.5864 260.559 39.6006C260.937 40.6148 261.484 41.4053 262.2 41.972C262.916 42.5288 263.786 42.8072 264.81 42.8072C265.844 42.8072 266.719 42.5239 267.435 41.9571C268.151 41.3804 268.693 40.5849 269.061 39.5707C269.438 38.5466 269.627 37.3683 269.627 36.0359C269.627 34.7135 269.443 33.5501 269.076 32.5459C268.708 31.5416 268.166 30.7561 267.45 30.1893C266.734 29.6226 265.854 29.3392 264.81 29.3392C263.776 29.3392 262.901 29.6126 262.185 30.1595C261.479 30.7064 260.937 31.482 260.559 32.4862C260.181 33.4905 259.992 34.6737 259.992 36.0359ZM290.795 47.9379C288.439 47.9379 286.41 47.4606 284.71 46.5061C283.02 45.5416 281.717 44.1794 280.802 42.4195C279.888 40.6496 279.43 38.5565 279.43 36.1403C279.43 33.7838 279.888 31.7156 280.802 29.9358C281.717 28.156 283.005 26.7689 284.665 25.7746C286.336 24.7803 288.294 24.2831 290.542 24.2831C292.053 24.2831 293.46 24.5267 294.763 25.0139C296.075 25.4912 297.218 26.2121 298.193 27.1766C299.177 28.141 299.943 29.3541 300.49 30.8158C301.037 32.2675 301.31 33.9678 301.31 35.9166V37.6616H281.966V33.7241H295.329C295.329 32.8094 295.13 31.999 294.733 31.293C294.335 30.5871 293.783 30.0352 293.077 29.6375C292.381 29.2298 291.571 29.026 290.646 29.026C289.682 29.026 288.826 29.2497 288.081 29.6972C287.345 30.1347 286.768 30.7263 286.351 31.472C285.933 32.2078 285.719 33.0281 285.709 33.9329V37.6766C285.709 38.8101 285.918 39.7895 286.336 40.6148C286.763 41.4401 287.365 42.0764 288.14 42.5239C288.916 42.9713 289.836 43.195 290.9 43.195C291.606 43.195 292.252 43.0956 292.838 42.8967C293.425 42.6979 293.927 42.3996 294.345 42.0018C294.763 41.6041 295.081 41.1169 295.299 40.5402L301.176 40.928C300.878 42.3399 300.266 43.5729 299.341 44.6268C298.427 45.6709 297.243 46.4862 295.792 47.0729C294.35 47.6496 292.684 47.9379 290.795 47.9379ZM325.617 47.9379C323.261 47.9379 321.232 47.4606 319.532 46.5061C317.842 45.5416 316.539 44.1794 315.625 42.4195C314.71 40.6496 314.252 38.5565 314.252 36.1403C314.252 33.7838 314.71 31.7156 315.625 29.9358C316.539 28.156 317.827 26.7689 319.487 25.7746C321.158 24.7803 323.117 24.2831 325.364 24.2831C326.875 24.2831 328.282 24.5267 329.585 25.0139C330.897 25.4912 332.041 26.2121 333.015 27.1766C334 28.141 334.765 29.3541 335.312 30.8158C335.859 32.2675 336.132 33.9678 336.132 35.9166V37.6616H316.788V33.7241H330.152C330.152 32.8094 329.953 31.999 329.555 31.293C329.157 30.5871 328.605 30.0352 327.899 29.6375C327.203 29.2298 326.393 29.026 325.468 29.026C324.504 29.026 323.649 29.2497 322.903 29.6972C322.167 30.1347 321.59 30.7263 321.173 31.472C320.755 32.2078 320.541 33.0281 320.532 33.9329V37.6766C320.532 38.8101 320.74 39.7895 321.158 40.6148C321.585 41.4401 322.187 42.0764 322.963 42.5239C323.738 42.9713 324.658 43.195 325.722 43.195C326.428 43.195 327.074 43.0956 327.661 42.8967C328.247 42.6979 328.75 42.3996 329.167 42.0018C329.585 41.6041 329.903 41.1169 330.122 40.5402L335.998 40.928C335.7 42.3399 335.088 43.5729 334.164 44.6268C333.249 45.6709 332.066 46.4862 330.614 47.0729C329.172 47.6496 327.507 47.9379 325.617 47.9379ZM345.178 24.5814L349.384 32.5906L353.694 24.5814H360.212L353.575 36.0359L360.391 47.4905H353.903L349.384 39.5707L344.94 47.4905H338.377L345.178 36.0359L338.616 24.5814H345.178ZM373.516 47.9379C371.17 47.9379 369.151 47.4408 367.461 46.4464C365.78 45.4422 364.488 44.0501 363.583 42.2703C362.688 40.4905 362.241 38.4422 362.241 36.1254C362.241 33.7788 362.693 31.7206 363.598 29.9507C364.513 28.1709 365.81 26.7838 367.491 25.7895C369.171 24.7852 371.17 24.2831 373.486 24.2831C375.485 24.2831 377.235 24.646 378.736 25.3719C380.238 26.0977 381.426 27.1169 382.301 28.4294C383.176 29.7419 383.658 31.2831 383.748 33.053H377.752C377.583 31.9095 377.136 30.9898 376.41 30.2937C375.694 29.5878 374.754 29.2348 373.591 29.2348C372.606 29.2348 371.746 29.5033 371.011 30.0402C370.285 30.5672 369.718 31.3378 369.31 32.352C368.903 33.3662 368.699 34.5942 368.699 36.0359C368.699 37.4976 368.898 38.7405 369.295 39.7646C369.703 40.7888 370.275 41.5693 371.011 42.1062C371.746 42.6432 372.606 42.9116 373.591 42.9116C374.317 42.9116 374.968 42.7625 375.545 42.4642C376.131 42.1659 376.614 41.7334 376.991 41.1666C377.379 40.5899 377.633 39.8989 377.752 39.0935H383.748C383.648 40.8435 383.171 42.3847 382.316 43.717C381.471 45.0395 380.302 46.0736 378.811 46.8193C377.319 47.5651 375.555 47.9379 373.516 47.9379ZM387.816 47.4905V24.5814H394.169V47.4905H387.816ZM391.008 21.6283C390.063 21.6283 389.253 21.3151 388.576 20.6886C387.91 20.0523 387.577 19.2916 387.577 18.4067C387.577 17.5317 387.91 16.781 388.576 16.1545C389.253 15.5182 390.063 15.2 391.008 15.2C391.952 15.2 392.758 15.5182 393.424 16.1545C394.1 16.781 394.438 17.5317 394.438 18.4067C394.438 19.2916 394.1 20.0523 393.424 20.6886C392.758 21.3151 391.952 21.6283 391.008 21.6283ZM411.444 24.5814V29.3541H397.648V24.5814H411.444ZM400.78 19.0928H407.134V40.4507C407.134 41.0374 407.224 41.4947 407.403 41.8229C407.582 42.141 407.83 42.3648 408.148 42.494C408.476 42.6233 408.854 42.6879 409.282 42.6879C409.58 42.6879 409.878 42.6631 410.177 42.6133C410.475 42.5537 410.704 42.5089 410.863 42.4791L411.862 47.2071C411.544 47.3065 411.096 47.4209 410.52 47.5501C409.943 47.6893 409.242 47.7739 408.417 47.8037C406.886 47.8633 405.543 47.6595 404.39 47.1922C403.246 46.7249 402.356 45.999 401.72 45.0146C401.084 44.0303 400.77 42.7874 400.78 41.2859V19.0928ZM425.778 47.9379C423.421 47.9379 421.393 47.4606 419.692 46.5061C418.002 45.5416 416.699 44.1794 415.785 42.4195C414.87 40.6496 414.413 38.5565 414.413 36.1403C414.413 33.7838 414.87 31.7156 415.785 29.9358C416.699 28.156 417.987 26.7689 419.648 25.7746C421.318 24.7803 423.277 24.2831 425.524 24.2831C427.035 24.2831 428.442 24.5267 429.745 25.0139C431.057 25.4912 432.201 26.2121 433.175 27.1766C434.16 28.141 434.925 29.3541 435.472 30.8158C436.019 32.2675 436.293 33.9678 436.293 35.9166V37.6616H416.948V33.7241H430.312C430.312 32.8094 430.113 31.999 429.715 31.293C429.317 30.5871 428.766 30.0352 428.06 29.6375C427.364 29.2298 426.553 29.026 425.628 29.026C424.664 29.026 423.809 29.2497 423.063 29.6972C422.327 30.1347 421.751 30.7263 421.333 31.472C420.915 32.2078 420.702 33.0281 420.692 33.9329V37.6766C420.692 38.8101 420.9 39.7895 421.318 40.6148C421.746 41.4401 422.347 42.0764 423.123 42.5239C423.898 42.9713 424.818 43.195 425.882 43.195C426.588 43.195 427.234 43.0956 427.821 42.8967C428.408 42.6979 428.91 42.3996 429.327 42.0018C429.745 41.6041 430.063 41.1169 430.282 40.5402L436.158 40.928C435.86 42.3399 435.248 43.5729 434.324 44.6268C433.409 45.6709 432.226 46.4862 430.774 47.0729C429.332 47.6496 427.667 47.9379 425.778 47.9379ZM448.881 47.8633C447.141 47.8633 445.565 47.4159 444.153 46.521C442.751 45.6162 441.637 44.2888 440.812 42.5388C439.996 40.7788 439.589 38.6212 439.589 36.0658C439.589 33.4408 440.011 31.2582 440.856 29.5182C441.702 27.7682 442.825 26.4606 444.227 25.5956C445.639 24.7206 447.185 24.2831 448.866 24.2831C450.148 24.2831 451.217 24.5018 452.072 24.9393C452.937 25.3669 453.633 25.9038 454.16 26.5501C454.697 27.1865 455.105 27.8129 455.383 28.4294H455.577V16.945H461.916V47.4905H455.652V43.8214H455.383C455.085 44.4578 454.663 45.0892 454.116 45.7156C453.579 46.3321 452.878 46.8442 452.013 47.2518C451.158 47.6595 450.114 47.8633 448.881 47.8633ZM450.894 42.8072C451.918 42.8072 452.783 42.5288 453.489 41.972C454.205 41.4053 454.752 40.6148 455.13 39.6006C455.518 38.5864 455.712 37.3981 455.712 36.0359C455.712 34.6737 455.523 33.4905 455.145 32.4862C454.767 31.482 454.22 30.7064 453.504 30.1595C452.788 29.6126 451.918 29.3392 450.894 29.3392C449.85 29.3392 448.97 29.6226 448.254 30.1893C447.538 30.7561 446.996 31.5416 446.628 32.5459C446.261 33.5501 446.077 34.7135 446.077 36.0359C446.077 37.3683 446.261 38.5466 446.628 39.5707C447.006 40.5849 447.548 41.3804 448.254 41.9571C448.97 42.5239 449.85 42.8072 450.894 42.8072ZM470.854 47.8783C469.869 47.8783 469.024 47.5303 468.318 46.8342C467.622 46.1283 467.274 45.2831 467.274 44.2987C467.274 43.3243 467.622 42.4891 468.318 41.793C469.024 41.097 469.869 40.749 470.854 40.749C471.808 40.749 472.644 41.097 473.359 41.793C474.075 42.4891 474.433 43.3243 474.433 44.2987C474.433 44.955 474.264 45.5565 473.926 46.1034C473.598 46.6403 473.166 47.0729 472.629 47.401C472.092 47.7192 471.5 47.8783 470.854 47.8783Z" fill="url(#paint0_linear_6_4)"/>
</g>
<path d="M15.2 16.945H22.4337L29.3989 30.0999H29.6972L36.6624 16.945H43.896L32.7547 36.6922V47.4905H26.3413V36.6922L15.2 16.945ZM52.8561 47.9379C50.5393 47.9379 48.5358 47.4457 46.8454 46.4614C45.165 45.467 43.8674 44.0849 42.9527 42.3151C42.0379 40.5352 41.5805 38.472 41.5805 36.1254C41.5805 33.7589 42.0379 31.6908 42.9527 29.9209C43.8674 28.141 45.165 26.7589 46.8454 25.7746C48.5358 24.7803 50.5393 24.2831 52.8561 24.2831C55.1728 24.2831 57.1714 24.7803 58.8518 25.7746C60.5422 26.7589 61.8447 28.141 62.7595 29.9209C63.6743 31.6908 64.1316 33.7589 64.1316 36.1254C64.1316 38.472 63.6743 40.5352 62.7595 42.3151C61.8447 44.0849 60.5422 45.467 58.8518 46.4614C57.1714 47.4457 55.1728 47.9379 52.8561 47.9379ZM52.8859 43.016C53.9399 43.016 54.8199 42.7178 55.5258 42.1212C56.2318 41.5146 56.7637 40.6893 57.1217 39.6453C57.4896 38.6013 57.6735 37.4131 57.6735 36.0807C57.6735 34.7483 57.4896 33.5601 57.1217 32.516C56.7637 31.472 56.2318 30.6467 55.5258 30.0402C54.8199 29.4337 53.9399 29.1304 52.8859 29.1304C51.822 29.1304 50.9271 29.4337 50.2012 30.0402C49.4853 30.6467 48.9434 31.472 48.5755 32.516C48.2176 33.5601 48.0386 34.7483 48.0386 36.0807C48.0386 37.4131 48.2176 38.6013 48.5755 39.6453C48.9434 40.6893 49.4853 41.5146 50.2012 42.1212C50.9271 42.7178 51.822 43.016 52.8859 43.016ZM82.9541 37.7362V24.5814H89.3078V47.4905H83.2076V43.3293H82.969C82.452 44.6716 81.5919 45.7504 80.3887 46.5658C79.1956 47.3811 77.7389 47.7888 76.0187 47.7888C74.4875 47.7888 73.1402 47.4408 71.9768 46.7447C70.8135 46.0487 69.9037 45.0594 69.2474 43.7767C68.6011 42.494 68.273 40.9578 68.263 39.168V24.5814H74.6167V38.0345C74.6267 39.3868 74.9896 40.4557 75.7055 41.2412C76.4214 42.0267 77.3809 42.4195 78.5841 42.4195C79.3497 42.4195 80.0656 42.2454 80.7318 41.8974C81.398 41.5395 81.9349 41.0125 82.3426 40.3165C82.7602 39.6204 82.964 38.7604 82.9541 37.7362ZM123.172 31.1141L117.355 31.472C117.256 30.9749 117.042 30.5274 116.714 30.1297C116.386 29.722 115.953 29.3989 115.416 29.1602C114.889 28.9116 114.258 28.7874 113.522 28.7874C112.538 28.7874 111.707 28.9962 111.031 29.4138C110.355 29.8214 110.017 30.3683 110.017 31.0544C110.017 31.6013 110.236 32.0636 110.673 32.4415C111.111 32.8193 111.861 33.1226 112.925 33.3513L117.072 34.1865C119.299 34.6439 120.959 35.3797 122.053 36.3939C123.147 37.4081 123.694 38.7405 123.694 40.391C123.694 41.8925 123.251 43.2099 122.366 44.3435C121.491 45.477 120.288 46.3619 118.757 46.9983C117.236 47.6247 115.481 47.9379 113.492 47.9379C110.459 47.9379 108.043 47.3065 106.244 46.0437C104.454 44.771 103.405 43.0409 103.096 40.8534L109.346 40.5253C109.535 41.45 109.992 42.156 110.718 42.6432C111.444 43.1205 112.373 43.3591 113.507 43.3591C114.621 43.3591 115.516 43.1453 116.192 42.7178C116.878 42.2803 117.226 41.7185 117.236 41.0324C117.226 40.4557 116.982 39.9834 116.505 39.6155C116.028 39.2376 115.292 38.9493 114.297 38.7504L110.33 37.9599C108.093 37.5125 106.427 36.7369 105.334 35.6332C104.25 34.5295 103.708 33.1226 103.708 31.4124C103.708 29.9408 104.106 28.673 104.901 27.6091C105.707 26.5452 106.835 25.7249 108.287 25.1481C109.748 24.5714 111.459 24.2831 113.418 24.2831C116.311 24.2831 118.588 24.8946 120.248 26.1176C121.919 27.3406 122.893 29.0061 123.172 31.1141ZM134.048 34.2462V47.4905H127.695V16.945H133.869V28.6233H134.138C134.655 27.271 135.49 26.2121 136.644 25.4464C137.797 24.6709 139.244 24.2831 140.984 24.2831C142.575 24.2831 143.962 24.6311 145.145 25.3271C146.338 26.0132 147.263 27.0026 147.919 28.2952C148.585 29.5778 148.913 31.1141 148.903 32.9038V47.4905H142.55V34.0374C142.56 32.6254 142.202 31.5267 141.476 30.7412C140.76 29.9557 139.756 29.5629 138.463 29.5629C137.598 29.5629 136.832 29.7469 136.166 30.1148C135.51 30.4827 134.993 31.0196 134.615 31.7256C134.247 32.4216 134.058 33.2618 134.048 34.2462ZM164.255 47.9379C161.938 47.9379 159.934 47.4457 158.244 46.4614C156.563 45.467 155.266 44.0849 154.351 42.3151C153.436 40.5352 152.979 38.472 152.979 36.1254C152.979 33.7589 153.436 31.6908 154.351 29.9209C155.266 28.141 156.563 26.7589 158.244 25.7746C159.934 24.7803 161.938 24.2831 164.255 24.2831C166.571 24.2831 168.57 24.7803 170.25 25.7746C171.941 26.7589 173.243 28.141 174.158 29.9209C175.073 31.6908 175.53 33.7589 175.53 36.1254C175.53 38.472 175.073 40.5352 174.158 42.3151C173.243 44.0849 171.941 45.467 170.25 46.4614C168.57 47.4457 166.571 47.9379 164.255 47.9379ZM164.284 43.016C165.338 43.016 166.218 42.7178 166.924 42.1212C167.63 41.5146 168.162 40.6893 168.52 39.6453C168.888 38.6013 169.072 37.4131 169.072 36.0807C169.072 34.7483 168.888 33.5601 168.52 32.516C168.162 31.472 167.63 30.6467 166.924 30.0402C166.218 29.4337 165.338 29.1304 164.284 29.1304C163.22 29.1304 162.326 29.4337 161.6 30.0402C160.884 30.6467 160.342 31.472 159.974 32.516C159.616 33.5601 159.437 34.7483 159.437 36.0807C159.437 37.4131 159.616 38.6013 159.974 39.6453C160.342 40.6893 160.884 41.5146 161.6 42.1212C162.326 42.7178 163.22 43.016 164.284 43.016ZM194.353 37.7362V24.5814H200.706V47.4905H194.606V43.3293H194.367C193.85 44.6716 192.99 45.7504 191.787 46.5658C190.594 47.3811 189.137 47.7888 187.417 47.7888C185.886 47.7888 184.539 47.4408 183.375 46.7447C182.212 46.0487 181.302 45.0594 180.646 43.7767C180 42.494 179.671 40.9578 179.661 39.168V24.5814H186.015V38.0345C186.025 39.3868 186.388 40.4557 187.104 41.2412C187.82 42.0267 188.779 42.4195 189.982 42.4195C190.748 42.4195 191.464 42.2454 192.13 41.8974C192.796 41.5395 193.333 41.0125 193.741 40.3165C194.159 39.6204 194.362 38.7604 194.353 37.7362ZM212.142 16.945V47.4905H205.788V16.945H212.142ZM225.674 47.8633C223.933 47.8633 222.357 47.4159 220.946 46.521C219.544 45.6162 218.43 44.2888 217.605 42.5388C216.789 40.7788 216.382 38.6212 216.382 36.0658C216.382 33.4408 216.804 31.2582 217.649 29.5182C218.495 27.7682 219.618 26.4606 221.02 25.5956C222.432 24.7206 223.978 24.2831 225.659 24.2831C226.941 24.2831 228.01 24.5018 228.865 24.9393C229.73 25.3669 230.426 25.9038 230.953 26.5501C231.49 27.1865 231.898 27.8129 232.176 28.4294H232.37V16.945H238.709V47.4905H232.445V43.8214H232.176C231.878 44.4578 231.456 45.0892 230.909 45.7156C230.372 46.3321 229.671 46.8442 228.806 47.2518C227.951 47.6595 226.907 47.8633 225.674 47.8633ZM227.687 42.8072C228.711 42.8072 229.576 42.5288 230.282 41.972C230.998 41.4053 231.545 40.6148 231.923 39.6006C232.311 38.5864 232.505 37.3981 232.505 36.0359C232.505 34.6737 232.316 33.4905 231.938 32.4862C231.56 31.482 231.013 30.7064 230.297 30.1595C229.581 29.6126 228.711 29.3392 227.687 29.3392C226.643 29.3392 225.763 29.6226 225.047 30.1893C224.331 30.7561 223.789 31.5416 223.421 32.5459C223.054 33.5501 222.87 34.7135 222.87 36.0359C222.87 37.3683 223.054 38.5466 223.421 39.5707C223.799 40.5849 224.341 41.3804 225.047 41.9571C225.763 42.5239 226.643 42.8072 227.687 42.8072ZM253.773 47.4905V16.945H260.127V28.4294H260.321C260.599 27.8129 261.002 27.1865 261.529 26.5501C262.066 25.9038 262.762 25.3669 263.617 24.9393C264.482 24.5018 265.556 24.2831 266.838 24.2831C268.509 24.2831 270.05 24.7206 271.462 25.5956C272.874 26.4606 274.002 27.7682 274.848 29.5182C275.693 31.2582 276.115 33.4408 276.115 36.0658C276.115 38.6212 275.703 40.7788 274.877 42.5388C274.062 44.2888 272.948 45.6162 271.536 46.521C270.134 47.4159 268.563 47.8633 266.823 47.8633C265.59 47.8633 264.541 47.6595 263.676 47.2518C262.821 46.8442 262.12 46.3321 261.573 45.7156C261.027 45.0892 260.609 44.4578 260.321 43.8214H260.037V47.4905H253.773ZM259.992 36.0359C259.992 37.3981 260.181 38.5864 260.559 39.6006C260.937 40.6148 261.484 41.4053 262.2 41.972C262.916 42.5288 263.786 42.8072 264.81 42.8072C265.844 42.8072 266.719 42.5239 267.435 41.9571C268.151 41.3804 268.693 40.5849 269.061 39.5707C269.438 38.5466 269.627 37.3683 269.627 36.0359C269.627 34.7135 269.443 33.5501 269.076 32.5459C268.708 31.5416 268.166 30.7561 267.45 30.1893C266.734 29.6226 265.854 29.3392 264.81 29.3392C263.776 29.3392 262.901 29.6126 262.185 30.1595C261.479 30.7064 260.937 31.482 260.559 32.4862C260.181 33.4905 259.992 34.6737 259.992 36.0359ZM290.795 47.9379C288.439 47.9379 286.41 47.4606 284.71 46.5061C283.02 45.5416 281.717 44.1794 280.802 42.4195C279.888 40.6496 279.43 38.5565 279.43 36.1403C279.43 33.7838 279.888 31.7156 280.802 29.9358C281.717 28.156 283.005 26.7689 284.665 25.7746C286.336 24.7803 288.294 24.2831 290.542 24.2831C292.053 24.2831 293.46 24.5267 294.763 25.0139C296.075 25.4912 297.218 26.2121 298.193 27.1766C299.177 28.141 299.943 29.3541 300.49 30.8158C301.037 32.2675 301.31 33.9678 301.31 35.9166V37.6616H281.966V33.7241H295.329C295.329 32.8094 295.13 31.999 294.733 31.293C294.335 30.5871 293.783 30.0352 293.077 29.6375C292.381 29.2298 291.571 29.026 290.646 29.026C289.682 29.026 288.826 29.2497 288.081 29.6972C287.345 30.1347 286.768 30.7263 286.351 31.472C285.933 32.2078 285.719 33.0281 285.709 33.9329V37.6766C285.709 38.8101 285.918 39.7895 286.336 40.6148C286.763 41.4401 287.365 42.0764 288.14 42.5239C288.916 42.9713 289.836 43.195 290.9 43.195C291.606 43.195 292.252 43.0956 292.838 42.8967C293.425 42.6979 293.927 42.3996 294.345 42.0018C294.763 41.6041 295.081 41.1169 295.299 40.5402L301.176 40.928C300.878 42.3399 300.266 43.5729 299.341 44.6268C298.427 45.6709 297.243 46.4862 295.792 47.0729C294.35 47.6496 292.684 47.9379 290.795 47.9379ZM325.617 47.9379C323.261 47.9379 321.232 47.4606 319.532 46.5061C317.842 45.5416 316.539 44.1794 315.625 42.4195C314.71 40.6496 314.252 38.5565 314.252 36.1403C314.252 33.7838 314.71 31.7156 315.625 29.9358C316.539 28.156 317.827 26.7689 319.487 25.7746C321.158 24.7803 323.117 24.2831 325.364 24.2831C326.875 24.2831 328.282 24.5267 329.585 25.0139C330.897 25.4912 332.041 26.2121 333.015 27.1766C334 28.141 334.765 29.3541 335.312 30.8158C335.859 32.2675 336.132 33.9678 336.132 35.9166V37.6616H316.788V33.7241H330.152C330.152 32.8094 329.953 31.999 329.555 31.293C329.157 30.5871 328.605 30.0352 327.899 29.6375C327.203 29.2298 326.393 29.026 325.468 29.026C324.504 29.026 323.649 29.2497 322.903 29.6972C322.167 30.1347 321.59 30.7263 321.173 31.472C320.755 32.2078 320.541 33.0281 320.532 33.9329V37.6766C320.532 38.8101 320.74 39.7895 321.158 40.6148C321.585 41.4401 322.187 42.0764 322.963 42.5239C323.738 42.9713 324.658 43.195 325.722 43.195C326.428 43.195 327.074 43.0956 327.661 42.8967C328.247 42.6979 328.75 42.3996 329.167 42.0018C329.585 41.6041 329.903 41.1169 330.122 40.5402L335.998 40.928C335.7 42.3399 335.088 43.5729 334.164 44.6268C333.249 45.6709 332.066 46.4862 330.614 47.0729C329.172 47.6496 327.507 47.9379 325.617 47.9379ZM345.178 24.5814L349.384 32.5906L353.694 24.5814H360.212L353.575 36.0359L360.391 47.4905H353.903L349.384 39.5707L344.94 47.4905H338.377L345.178 36.0359L338.616 24.5814H345.178ZM373.516 47.9379C371.17 47.9379 369.151 47.4408 367.461 46.4464C365.78 45.4422 364.488 44.0501 363.583 42.2703C362.688 40.4905 362.241 38.4422 362.241 36.1254C362.241 33.7788 362.693 31.7206 363.598 29.9507C364.513 28.1709 365.81 26.7838 367.491 25.7895C369.171 24.7852 371.17 24.2831 373.486 24.2831C375.485 24.2831 377.235 24.646 378.736 25.3719C380.238 26.0977 381.426 27.1169 382.301 28.4294C383.176 29.7419 383.658 31.2831 383.748 33.053H377.752C377.583 31.9095 377.136 30.9898 376.41 30.2937C375.694 29.5878 374.754 29.2348 373.591 29.2348C372.606 29.2348 371.746 29.5033 371.011 30.0402C370.285 30.5672 369.718 31.3378 369.31 32.352C368.903 33.3662 368.699 34.5942 368.699 36.0359C368.699 37.4976 368.898 38.7405 369.295 39.7646C369.703 40.7888 370.275 41.5693 371.011 42.1062C371.746 42.6432 372.606 42.9116 373.591 42.9116C374.317 42.9116 374.968 42.7625 375.545 42.4642C376.131 42.1659 376.614 41.7334 376.991 41.1666C377.379 40.5899 377.633 39.8989 377.752 39.0935H383.748C383.648 40.8435 383.171 42.3847 382.316 43.717C381.471 45.0395 380.302 46.0736 378.811 46.8193C377.319 47.5651 375.555 47.9379 373.516 47.9379ZM387.816 47.4905V24.5814H394.169V47.4905H387.816ZM391.008 21.6283C390.063 21.6283 389.253 21.3151 388.576 20.6886C387.91 20.0523 387.577 19.2916 387.577 18.4067C387.577 17.5317 387.91 16.781 388.576 16.1545C389.253 15.5182 390.063 15.2 391.008 15.2C391.952 15.2 392.758 15.5182 393.424 16.1545C394.1 16.781 394.438 17.5317 394.438 18.4067C394.438 19.2916 394.1 20.0523 393.424 20.6886C392.758 21.3151 391.952 21.6283 391.008 21.6283ZM411.444 24.5814V29.3541H397.648V24.5814H411.444ZM400.78 19.0928H407.134V40.4507C407.134 41.0374 407.224 41.4947 407.403 41.8229C407.582 42.141 407.83 42.3648 408.148 42.494C408.476 42.6233 408.854 42.6879 409.282 42.6879C409.58 42.6879 409.878 42.6631 410.177 42.6133C410.475 42.5537 410.704 42.5089 410.863 42.4791L411.862 47.2071C411.544 47.3065 411.096 47.4209 410.52 47.5501C409.943 47.6893 409.242 47.7739 408.417 47.8037C406.886 47.8633 405.543 47.6595 404.39 47.1922C403.246 46.7249 402.356 45.999 401.72 45.0146C401.084 44.0303 400.77 42.7874 400.78 41.2859V19.0928ZM425.778 47.9379C423.421 47.9379 421.393 47.4606 419.692 46.5061C418.002 45.5416 416.699 44.1794 415.785 42.4195C414.87 40.6496 414.413 38.5565 414.413 36.1403C414.413 33.7838 414.87 31.7156 415.785 29.9358C416.699 28.156 417.987 26.7689 419.648 25.7746C421.318 24.7803 423.277 24.2831 425.524 24.2831C427.035 24.2831 428.442 24.5267 429.745 25.0139C431.057 25.4912 432.201 26.2121 433.175 27.1766C434.16 28.141 434.925 29.3541 435.472 30.8158C436.019 32.2675 436.293 33.9678 436.293 35.9166V37.6616H416.948V33.7241H430.312C430.312 32.8094 430.113 31.999 429.715 31.293C429.317 30.5871 428.766 30.0352 428.06 29.6375C427.364 29.2298 426.553 29.026 425.628 29.026C424.664 29.026 423.809 29.2497 423.063 29.6972C422.327 30.1347 421.751 30.7263 421.333 31.472C420.915 32.2078 420.702 33.0281 420.692 33.9329V37.6766C420.692 38.8101 420.9 39.7895 421.318 40.6148C421.746 41.4401 422.347 42.0764 423.123 42.5239C423.898 42.9713 424.818 43.195 425.882 43.195C426.588 43.195 427.234 43.0956 427.821 42.8967C428.408 42.6979 428.91 42.3996 429.327 42.0018C429.745 41.6041 430.063 41.1169 430.282 40.5402L436.158 40.928C435.86 42.3399 435.248 43.5729 434.324 44.6268C433.409 45.6709 432.226 46.4862 430.774 47.0729C429.332 47.6496 427.667 47.9379 425.778 47.9379ZM448.881 47.8633C447.141 47.8633 445.565 47.4159 444.153 46.521C442.751 45.6162 441.637 44.2888 440.812 42.5388C439.996 40.7788 439.589 38.6212 439.589 36.0658C439.589 33.4408 440.011 31.2582 440.856 29.5182C441.702 27.7682 442.825 26.4606 444.227 25.5956C445.639 24.7206 447.185 24.2831 448.866 24.2831C450.148 24.2831 451.217 24.5018 452.072 24.9393C452.937 25.3669 453.633 25.9038 454.16 26.5501C454.697 27.1865 455.105 27.8129 455.383 28.4294H455.577V16.945H461.916V47.4905H455.652V43.8214H455.383C455.085 44.4578 454.663 45.0892 454.116 45.7156C453.579 46.3321 452.878 46.8442 452.013 47.2518C451.158 47.6595 450.114 47.8633 448.881 47.8633ZM450.894 42.8072C451.918 42.8072 452.783 42.5288 453.489 41.972C454.205 41.4053 454.752 40.6148 455.13 39.6006C455.518 38.5864 455.712 37.3981 455.712 36.0359C455.712 34.6737 455.523 33.4905 455.145 32.4862C454.767 31.482 454.22 30.7064 453.504 30.1595C452.788 29.6126 451.918 29.3392 450.894 29.3392C449.85 29.3392 448.97 29.6226 448.254 30.1893C447.538 30.7561 446.996 31.5416 446.628 32.5459C446.261 33.5501 446.077 34.7135 446.077 36.0359C446.077 37.3683 446.261 38.5466 446.628 39.5707C447.006 40.5849 447.548 41.3804 448.254 41.9571C448.97 42.5239 449.85 42.8072 450.894 42.8072ZM470.854 47.8783C469.869 47.8783 469.024 47.5303 468.318 46.8342C467.622 46.1283 467.274 45.2831 467.274 44.2987C467.274 43.3243 467.622 42.4891 468.318 41.793C469.024 41.097 469.869 40.749 470.854 40.749C471.808 40.749 472.644 41.097 473.359 41.793C474.075 42.4891 474.433 43.3243 474.433 44.2987C474.433 44.955 474.264 45.5565 473.926 46.1034C473.598 46.6403 473.166 47.0729 472.629 47.401C472.092 47.7192 471.5 47.8783 470.854 47.8783Z" fill="url(#paint1_linear_6_4)"/>
<defs>
<filter id="filter0_f_6_4" x="4.76837e-06" y="-2.86102e-06" width="489.633" height="63.1379" filterUnits="userSpaceOnUse" color-interpolation-filters="sRGB">
<feFlood flood-opacity="0" result="BackgroundImageFix"/>
<feBlend mode="normal" in="SourceGraphic" in2="BackgroundImageFix" result="shape"/>
<feGaussianBlur stdDeviation="7.6" result="effect1_foregroundBlur_6_4"/>
</filter>
<linearGradient id="paint0_linear_6_4" x1="14.3349" y1="31.9905" x2="476.335" y2="31.9905" gradientUnits="userSpaceOnUse">
<stop stop-color="#55A7FF"/>
<stop offset="0.16" stop-color="#5F7CFF"/>
<stop offset="0.32" stop-color="#7B6CFF"/>
<stop offset="0.48" stop-color="#B05CFF"/>
<stop offset="0.64" stop-color="#FF5C8A"/>
<stop offset="0.76" stop-color="#FF4D4D"/>
<stop offset="0.9" stop-color="#FF7A3D"/>
<stop offset="1" stop-color="#FFB04A"/>
</linearGradient>
<linearGradient id="paint1_linear_6_4" x1="14.3349" y1="31.9905" x2="476.335" y2="31.9905" gradientUnits="userSpaceOnUse">
<stop stop-color="#55A7FF"/>
<stop offset="0.16" stop-color="#5F7CFF"/>
<stop offset="0.32" stop-color="#7B6CFF"/>
<stop offset="0.48" stop-color="#B05CFF"/>
<stop offset="0.64" stop-color="#FF5C8A"/>
<stop offset="0.76" stop-color="#FF4D4D"/>
<stop offset="0.9" stop-color="#FF7A3D"/>
<stop offset="1" stop-color="#FFB04A"/>
</linearGradient>
</defs>
</svg>
